  <svg width="3000" height="3000" xmlns="http://www.w3.org/2000/svg">
    <defs>
      <pattern id="nixiepin" patternUnits="userSpaceOnUse" width="200" height="200" patternTransform="rotate(0) scale(1, 1)">
        <polygon points="0,67.5 0,82.5 200,82.5 200,67.5 " stroke="black" stroke-width="1" fill="black" fill-opacity="0.5">
        </polygon>
        <polygon points="35,0 35,200 45,200 45,0 " stroke="black" stroke-width="1" fill="black" fill-opacity="0.5">
        </polygon>
        <polygon points="55,0 55,200 65,200 65,0 " stroke="black" stroke-width="1" fill="black" fill-opacity="0.5">
        </polygon>
        <polygon points="75,0 75,200 85,200 85,0 " stroke="black" stroke-width="1" fill="black" fill-opacity="0.5">
        </polygon>
        <polygon points="95,0 95,200 105,200 105,0 " stroke="black" stroke-width="1" fill="black" fill-opacity="0.5">
        </polygon>
        <polygon points="115,0 115,200 125,200 125,0 " stroke="black" stroke-width="1" fill="black" fill-opacity="0.5">
        </polygon>
        <polygon points="135,0 135,200 145,200 145,0 " stroke="black" stroke-width="1" fill="black" fill-opacity="0.5">
        </polygon>
        <polygon points="155,0 155,200 165,200 165,0 " stroke="black" stroke-width="1" fill="black" fill-opacity="0.5">
        </polygon>
      </pattern>
    </defs>
    <rect width="100%" height="100%" fill="url(#nixiepin)" />
  </svg>